# xmcd
#
# Track frame offsets: 
#        150
#        17401
#        36150
#        57405
#        74326
#        90604
#        111793
#        127168
#        142304
#        162383
#        181391
#        201010
#        225907
#        241031
#        257612
#
# Disc length: 3685 seconds
#
# Revision: 0
# Processed by: cddbd v1.5.2PL0 Copyright (c) Steve Scherf et al.
# Submitted via: ExactAudioCopy v1.0b3
#
DISCID=cd0e630f
DTITLE=Various Artist - 90's Pop Tour Vol. 2 [CD 1)
DYEAR=2018
DGENRE=Pop
TTITLE0=MDO - No Puedo Olvidarme De Ti
TTITLE1=El Círculo - Baila
TTITLE2=The Sacados Feat. Litzy - Pensando En Esa Chica
TTITLE3=JNS - La Ilusión Del Primer Amor
TTITLE4=Fey Feat. MDO, Calo - Popocatépetl
TTITLE5=JNS Feat. Dulce María - Entre Azul Y Buenas Noches
TTITLE6=Irán Castillo Feat. JNS - Por Ti, Por Mí
TTITLE7=OV7 Feat. El Círculo - Tus Besos
TTITLE8=MDO - Dame Un Poco Más
TTITLE9=Fey Feat. Beto Cuevas - Ni Tú Ni Nadie
TTITLE10=JNS Feat. MDO - Sólo Vivo Para Ti
TTITLE11=El Círculo Feat. JNS - Ayúdame
TTITLE12=JNS Feat. OV7 - Dime Que Me Amas
TTITLE13=Litzy Feat. OV7 - Quisiera Ser Mayor
TTITLE14=Fey Feat. Calo - Te Pertenezco
EXTD=
EXTT0=
EXTT1=
EXTT2=
EXTT3=
EXTT4=
EXTT5=
EXTT6=
EXTT7=
EXTT8=
EXTT9=
EXTT10=
EXTT11=
EXTT12=
EXTT13=
EXTT14=
PLAYORDER=
